<?xml version="1.0" encoding="UTF-8"?><svg id="Capa_2" xmlns="http://www.w3.org/2000/svg" viewBox="0 0 70.98 59.72"><defs><style>.cls-1{fill:none;stroke:#fff;stroke-linejoin:bevel;stroke-width:4px;}</style></defs><g id="Modalità_Isolamento"><g><line class="cls-1" x1="51.33" y1="8.84" x2="44.52" y2="15.68"/><line class="cls-1" x1="30.07" y1="9.8" x2="30.07"/><line class="cls-1" x1="8.81" y1="8.84" x2="15.61" y2="15.66"/><line class="cls-1" x1="9.58" y1="30.17" y2="30.17"/><path class="cls-1" d="M35.44,35.91c-1.96-1.46-4.38-2.33-7-2.33-4.09,0-7.69,2.11-9.82,5.32-1.28,1.93-2.02,4.25-2.02,6.75,0,6.66,5.3,12.07,11.84,12.07h23.37c9.48,0,17.16-7.5,17.16-16.76s-7.68-16.76-17.16-16.76c-2.91,0-5.64,.7-8.04,1.95-5.43,2.82-9.12,8.39-9.12,14.81"/><path class="cls-1" d="M18.57,38.95c-1.86-2.43-2.96-5.47-2.96-8.77,0-7.99,6.47-14.46,14.46-14.46,6.49,0,11.98,4.28,13.81,10.17"/></g></g></svg>