<?xml version="1.0" encoding="UTF-8"?><svg id="Capa_2" xmlns="http://www.w3.org/2000/svg" viewBox="0 0 71.44 62.9"><defs><style>.cls-1{stroke-linejoin:bevel;}.cls-1,.cls-2{fill:none;stroke:#fff;stroke-width:4px;}.cls-2{stroke-linecap:round;stroke-miterlimit:10;}</style></defs><g id="Modalità_Isolamento"><path class="cls-2" d="M16.73,46.53c-3.81-.9-15.71-5.73-14.66-15.02,7.81,2.34,16.62,.43,22.78-5.73,6.17-6.17,8.08-14.98,5.73-22.78,3.51,1.05,6.81,2.96,9.58,5.73,4.91,4.91,7.12,11.49,6.64,17.9"/><g><path class="cls-1" d="M47.16,28.13c-1.02,.31-2,.71-2.92,1.19-5.43,2.82-9.12,8.39-9.12,14.81"/><path class="cls-1" d="M48.43,27.8c-.43,.1-.85,.21-1.27,.33"/><path class="cls-1" d="M35.91,39.09c-1.96-1.46-4.38-2.33-7-2.33-4.09,0-7.69,2.11-9.82,5.32-1.28,1.93-2.02,4.25-2.02,6.75,0,6.66,5.3,12.07,11.84,12.07h23.37c9.48,0,17.16-7.5,17.16-16.76s-7.68-16.76-17.16-16.76c-1.32,0-2.61,.15-3.85,.42"/></g></g></svg>