<?xml version="1.0" encoding="UTF-8"?><svg id="Capa_2" xmlns="http://www.w3.org/2000/svg" viewBox="0 0 56.38 60.31"><defs><style>.cls-1{stroke-dasharray:0 0 8 4.8;}.cls-1,.cls-2{fill:none;stroke:#fff;stroke-miterlimit:10;stroke-width:4px;}</style></defs><g id="Modalità_Isolamento"><g><line class="cls-1" x1="35.37" y1="41.64" x2="25.17" y2="59.31"/><path class="cls-2" d="M20.05,18.76c0-1.76,.28-3.45,.8-5.04,1.36-4.22,4.39-7.73,8.33-9.77,2.4-1.24,5.13-1.95,8.04-1.95,9.48,0,17.16,7.51,17.16,16.76s-7.68,16.76-17.16,16.76"/><path class="cls-2" d="M20.84,13.72c-1.96-1.46-4.38-2.33-7-2.33-4.09,0-7.69,2.11-9.82,5.32-1.28,1.93-2.02,4.24-2.02,6.75,0,6.66,5.3,12.07,11.84,12.07h23.37"/><line class="cls-1" x1="23.37" y1="41.64" x2="13.16" y2="59.31"/></g></g></svg>