<?xml version="1.0" encoding="UTF-8"?><svg id="Capa_2" xmlns="http://www.w3.org/2000/svg" viewBox="0 0 70.14 83.34"><defs><style>.cls-1{stroke-linejoin:bevel;}.cls-1,.cls-2,.cls-3{fill:none;stroke:#fff;stroke-width:4px;}.cls-2{stroke-dasharray:0 0 8 4.8;}.cls-2,.cls-3{stroke-miterlimit:10;}</style></defs><g id="Modalità_Isolamento"><g><line class="cls-1" x1="51.53" y1="9.04" x2="44.73" y2="15.88"/><line class="cls-1" x1="30.27" y1="10" x2="30.27" y2=".2"/><line class="cls-1" x1="9.01" y1="9.04" x2="15.81" y2="15.86"/><line class="cls-1" x1="9.78" y1="30.37" x2=".2" y2="30.37"/><path class="cls-1" d="M18.77,39.15c-1.86-2.43-2.96-5.47-2.96-8.77,0-7.99,6.47-14.46,14.46-14.46,6.49,0,11.98,4.28,13.81,10.17"/></g><g><line class="cls-2" x1="49.14" y1="64.66" x2="38.93" y2="82.34"/><path class="cls-3" d="M33.81,41.79c0-1.76,.28-3.45,.8-5.04,1.36-4.22,4.39-7.73,8.33-9.77,2.4-1.24,5.13-1.95,8.04-1.95,9.48,0,17.16,7.51,17.16,16.76s-7.68,16.76-17.16,16.76"/><path class="cls-3" d="M34.61,36.74c-1.96-1.46-4.38-2.33-7-2.33-4.09,0-7.69,2.11-9.82,5.32-1.28,1.93-2.02,4.24-2.02,6.75,0,6.66,5.3,12.07,11.84,12.07h23.37"/><line class="cls-2" x1="37.14" y1="64.66" x2="26.93" y2="82.34"/></g></g></svg>