<?xml version="1.0" encoding="UTF-8"?><svg id="Capa_2" xmlns="http://www.w3.org/2000/svg" viewBox="0 0 65.42 66.17"><defs><style>.cls-1{stroke-width:4px;}.cls-1,.cls-2{fill:none;stroke:#fff;stroke-linejoin:bevel;}.cls-2{stroke-width:2.8px;}</style></defs><g id="Modalità_Isolamento"><g><g><line class="cls-2" x1="52.93" y1="51.05" x2="52.93" y2="66.17"/><line class="cls-2" x1="45.37" y1="58.61" x2="60.49" y2="58.61"/><line class="cls-2" x1="58.27" y1="53.27" x2="47.58" y2="63.96"/><line class="cls-2" x1="47.58" y1="53.27" x2="58.27" y2="63.96"/></g><g><line class="cls-2" x1="10.03" y1="51.05" x2="10.03" y2="66.17"/><line class="cls-2" x1="17.59" y1="58.61" x2="2.47" y2="58.61"/><line class="cls-2" x1="4.68" y1="53.27" x2="15.37" y2="63.96"/><line class="cls-2" x1="15.37" y1="53.27" x2="4.68" y2="63.96"/></g><g><path class="cls-1" d="M45.44,20.76c1.84-1.18,4.04-1.86,6.4-1.84,6.42,.05,11.67,5.42,11.58,11.84-.08,6.38-5.28,11.52-11.68,11.52h-6.65"/><path class="cls-1" d="M25.92,18.36c-2.54-2.54-6.04-4.11-9.91-4.11-7.74,0-14.01,6.27-14.01,14.01s6.27,14.01,14.01,14.01h2.88"/></g><path class="cls-1" d="M18.48,14.47c2.08-7.21,8.73-12.47,16.61-12.47,9.43,0,17.1,7.55,17.28,16.93"/><g><line class="cls-2" x1="31.83" y1="34.72" x2="31.83" y2="49.84"/><line class="cls-2" x1="39.39" y1="42.28" x2="24.27" y2="42.28"/><line class="cls-2" x1="26.48" y1="36.94" x2="37.17" y2="47.63"/><line class="cls-2" x1="37.17" y1="36.94" x2="26.48" y2="47.63"/></g></g></g></svg>