<?xml version="1.0" encoding="UTF-8"?><svg id="Capa_2" xmlns="http://www.w3.org/2000/svg" viewBox="0 0 50.78 50.61"><defs><style>.cls-1{fill:#fff;}.cls-2{fill:none;stroke:#fff;stroke-linecap:round;stroke-miterlimit:10;stroke-width:2.4px;}</style></defs><g id="Modalità_Isolamento"><g><g><path class="cls-1" d="M36.53,8.55c1.7,.93,3.27,2.11,4.65,3.49,3.87,3.87,6,9.01,6,14.49s-2.13,10.62-6,14.49c-3.87,3.87-9.01,6-14.49,6s-10.62-2.13-14.49-6c-1.38-1.38-2.56-2.95-3.49-4.65,.88,.09,1.77,.14,2.66,.14,6.75,0,13.1-2.63,17.88-7.4,5.46-5.46,8.06-13.02,7.27-20.54m-3.23-3.94c2.34,7.81,.43,16.62-5.73,22.78-4.47,4.47-10.32,6.7-16.18,6.7-2.23,0-4.45-.32-6.6-.97,1.05,3.51,2.96,6.81,5.73,9.58,4.47,4.47,10.33,6.7,16.18,6.7s11.71-2.23,16.18-6.7c8.94-8.94,8.94-23.43,0-32.36-2.77-2.77-6.07-4.68-9.58-5.73h0Z"/><path class="cls-2" d="M27.57,27.4c6.17-6.17,8.08-14.98,5.73-22.78,3.51,1.05,6.81,2.96,9.58,5.73,8.94,8.94,8.94,23.43,0,32.36-8.94,8.94-23.43,8.94-32.36,0-2.77-2.77-4.68-6.07-5.73-9.58,7.81,2.34,16.62,.43,22.78-5.73Z"/></g><g><rect class="cls-1" x="15.71" y="15.71" width="4.53" height="4.53" transform="translate(43.39 17.97) rotate(135)"/><g><rect class="cls-1" x=".94" y="11.86" width="4.53" height="4.53" transform="translate(15.45 21.85) rotate(135)"/><rect class="cls-1" x="11.86" y=".94" width="4.53" height="4.53" transform="translate(26.37 -4.52) rotate(135)"/></g></g></g></g></svg>