<?xml version="1.0" encoding="UTF-8"?><svg id="Capa_2" xmlns="http://www.w3.org/2000/svg" viewBox="0 0 82.86 49.01"><defs><style>.cls-1{stroke-linejoin:bevel;}.cls-1,.cls-2{fill:none;stroke:#fff;stroke-width:4px;}.cls-2{stroke-miterlimit:10;}</style></defs><g id="Modalità_Isolamento"><g><line class="cls-2" x1="61.62" y1="35.99" x2="70.87" y2="35.99"/><path class="cls-2" d="M43.04,8.95c2.11-4.13,6.41-6.95,11.37-6.95,7.05,0,12.77,5.72,12.77,12.77,9.01-.14,13.68,4.91,13.68,10.85,0,5.74-4.76,10.37-10.52,10.37"/><g><path class="cls-1" d="M51.74,47.01c6.4,0,11.6-5.14,11.68-11.52,.09-6.42-5.16-11.79-11.58-11.84-2.36-.02-4.56,.66-6.4,1.84"/><path class="cls-1" d="M25.92,23.09c-2.54-2.54-6.04-4.11-9.91-4.11-7.74,0-14.01,6.27-14.01,14.01s6.27,14.01,14.01,14.01H52.49"/></g><path class="cls-1" d="M18.48,19.2c2.08-7.21,8.73-12.47,16.61-12.47,9.43,0,17.1,7.55,17.28,16.93"/></g></g></svg>