<?xml version="1.0" encoding="UTF-8"?><svg id="Capa_2" xmlns="http://www.w3.org/2000/svg" viewBox="0 0 68.52 89.18"><defs><style>.cls-1{stroke-dasharray:0 0 8 4.8;}.cls-1,.cls-2,.cls-3{fill:none;stroke:#fff;stroke-miterlimit:10;stroke-width:4px;}.cls-3{stroke-linecap:round;}</style></defs><g id="Modalità_Isolamento"><g><line class="cls-1" x1="47.52" y1="70.51" x2="37.31" y2="88.18"/><path class="cls-2" d="M32.19,47.63c0-1.76,.28-3.45,.8-5.04,1.36-4.22,4.39-7.73,8.33-9.77,2.4-1.24,5.13-1.95,8.04-1.95,9.48,0,17.16,7.51,17.16,16.76s-7.68,16.76-17.16,16.76"/><path class="cls-2" d="M32.99,42.59c-1.96-1.46-4.38-2.33-7-2.33-4.09,0-7.69,2.11-9.82,5.32-1.28,1.93-2.02,4.24-2.02,6.75,0,6.66,5.3,12.07,11.84,12.07h23.37"/><line class="cls-1" x1="35.52" y1="70.51" x2="25.31" y2="88.18"/></g><path class="cls-3" d="M15.77,45.68c-3.74-1.16-15.28-6.79-13.61-15.99,7.63,2.87,16.55,1.57,23.12-4.17,6.57-5.73,9.08-14.39,7.27-22.34,3.43,1.29,6.59,3.42,9.17,6.37,4.56,5.23,6.12,14.55,5.2,20.92"/></g></svg>