<?xml version="1.0" encoding="UTF-8"?><svg id="Capa_2" xmlns="http://www.w3.org/2000/svg" viewBox="0 0 65.42 69.29"><defs><style>.cls-1{fill:#fff;}.cls-2{fill:none;stroke:#fff;stroke-linejoin:bevel;stroke-width:4px;}</style></defs><g id="Modalità_Isolamento"><polygon class="cls-1" points="31.03 69.29 27.6 67.22 35.45 54.22 26.3 54.22 34.74 38.12 39.26 38.12 32.91 50.22 42.54 50.22 31.03 69.29"/><g><path class="cls-2" d="M51.74,42.28c6.4,0,11.6-5.14,11.68-11.52,.09-6.42-5.16-11.79-11.58-11.84-2.36-.02-4.56,.66-6.4,1.84"/><path class="cls-2" d="M25.92,18.36c-2.54-2.54-6.04-4.11-9.91-4.11-7.74,0-14.01,6.27-14.01,14.01s6.27,14.01,14.01,14.01h10.32"/><path class="cls-2" d="M42.68,42.28h9.8"/></g><path class="cls-2" d="M18.48,14.47c2.08-7.21,8.73-12.47,16.61-12.47,9.43,0,17.1,7.55,17.28,16.93"/></g></svg>